<?xml version="1.0" standalone="no"?>
<!DOCTYPE svg PUBLIC "-//W3C//DTD SVG 20010904//EN"
 "http://www.w3.org/TR/2001/REC-SVG-20010904/DTD/svg10.dtd">
<svg version="1.0" xmlns="http://www.w3.org/2000/svg"
 width="512.000000pt" height="512.000000pt" viewBox="0 0 512.000000 512.000000"
 preserveAspectRatio="xMidYMid meet">

<g transform="translate(0.000000,512.000000) scale(0.100000,-0.100000)"
fill="#000000" stroke="none">
<path d="M572 5109 c-279 -47 -519 -292 -562 -575 -7 -47 -10 -687 -8 -2019
l3 -1950 28 -80 c79 -223 229 -373 452 -452 l80 -28 1995 0 1995 0 80 28 c231
82 390 248 462 482 17 57 18 148 18 2050 l0 1990 -28 80 c-79 223 -229 373
-452 452 l-80 28 -1965 1 c-1109 1 -1988 -2 -2018 -7z m2245 -1054 c219 -29
411 -88 605 -187 155 -79 273 -163 388 -278 158 -158 264 -338 317 -537 22
-83 26 -121 27 -248 1 -152 -5 -194 -46 -325 -95 -301 -449 -711 -868 -1006
-265 -186 -693 -424 -763 -424 -34 0 -67 26 -80 62 -3 10 3 92 13 182 21 168
19 198 -14 225 -8 7 -77 23 -153 36 -482 83 -868 313 -1102 658 -142 209 -207
502 -167 745 41 245 145 441 336 632 251 252 606 417 1010 469 111 14 371 12
497 -4z"/>
<path d="M1692 3153 c-7 -3 -19 -18 -27 -33 -12 -24 -15 -87 -15 -355 l0 -327
29 -29 29 -29 192 0 c189 0 191 0 215 25 33 32 34 83 2 113 -22 20 -33 22
-160 22 l-136 0 -3 284 -3 284 -24 26 c-23 25 -65 33 -99 19z"/>
<path d="M2240 3140 c-19 -19 -20 -33 -20 -370 0 -337 1 -351 20 -370 14 -14
33 -20 63 -20 79 0 77 -12 77 392 0 331 -1 356 -18 371 -27 24 -97 22 -122 -3z"/>
<path d="M2535 3135 l-25 -24 0 -341 0 -341 25 -24 c29 -30 74 -32 106 -6 23
19 24 24 29 226 l5 206 165 -213 c91 -117 177 -219 192 -227 37 -21 78 -6 101
39 16 32 17 65 15 358 l-3 324 -28 24 c-36 30 -68 30 -104 0 l-28 -24 -5 -202
-5 -202 -168 220 c-93 121 -176 223 -184 226 -31 12 -65 5 -88 -19z"/>
<path d="M3295 3135 l-25 -24 0 -341 0 -341 25 -24 c24 -25 25 -25 223 -25
195 0 199 0 220 23 30 32 29 87 -1 115 -22 20 -33 22 -165 22 l-142 0 0 75 0
75 140 0 c136 0 142 1 165 25 33 32 33 78 0 110 -23 24 -29 25 -165 25 l-141
0 3 73 3 72 140 3 c127 2 141 5 162 24 33 31 32 90 -3 117 -25 20 -40 21 -221
21 -193 0 -194 0 -218 -25z"/>
</g>
</svg>
