<svg width="200" height="110" viewBox="0 0 200 110" fill="none" xmlns="http://www.w3.org/2000/svg">
<rect width="200" height="91" fill="#FEFEFE"/>
<rect x="2.5" y="2.5" width="195" height="86" stroke="#4DF9EE" stroke-opacity="0.89" stroke-width="5"/>
<path d="M46.4469 55.528L31.1349 45.928V43.192L46.4949 33.544L48.6069 36.904L36.1749 44.536L48.6069 52.12L46.4469 55.528ZM60.3002 64.408L56.7482 63.208L70.2842 23.896L73.8362 25.096L60.3002 64.408ZM84.1656 55.528L82.0056 52.12L94.4376 44.536L82.0056 36.904L84.1176 33.544L99.4776 43.192V45.928L84.1656 55.528ZM109.251 61V25.48H116.355V40.888H116.451L128.259 25.48H136.083L125.187 39.448L137.955 61H130.227L121.011 45.064L116.355 51.016V61H109.251ZM140.773 40.696L139.141 37.576C142.309 35.896 143.845 33.88 143.845 30.616L143.509 26.248L146.053 29.656C145.285 30.328 144.373 30.76 143.365 30.76C141.253 30.76 139.525 29.368 139.525 27.064C139.525 24.616 141.109 23.08 143.365 23.08C146.389 23.08 148.021 25.48 148.021 29.56C148.021 34.456 145.621 38.2 140.773 40.696ZM159.995 61.672C156.395 61.672 152.411 60.136 149.771 57.928L152.939 53.464C155.387 55.336 157.643 56.44 160.139 56.44C162.827 56.44 164.075 55.24 164.075 53.56C164.075 51.592 161.243 50.632 158.459 49.576C155.051 48.232 151.259 46.216 151.259 41.656C151.259 36.904 155.099 33.496 161.243 33.496C165.131 33.496 168.203 35.08 170.411 36.808L167.195 41.032C165.323 39.688 163.403 38.728 161.435 38.728C158.987 38.728 157.883 39.784 157.883 41.368C157.883 43.288 160.331 44.056 163.211 45.064C166.763 46.408 170.651 48.232 170.651 53.176C170.651 57.928 166.955 61.672 159.995 61.672Z" fill="black"/>
<rect x="32" y="70" width="135" height="40" fill="#FEFEFE"/>
<path d="M71.2633 91.992L71.2313 92.536C71.2313 92.6427 71.1779 93.3147 71.0713 94.552C70.9859 95.4907 70.9433 96.216 70.9433 96.728C70.9433 97.368 70.9539 97.9013 70.9753 98.328C70.9966 98.4773 71.0073 98.6587 71.0073 98.872C71.0073 99.1067 70.9539 99.224 70.8472 99.224C70.7406 99.224 70.6233 99.1173 70.4953 98.904C70.0259 98.136 69.5246 97.6347 68.9913 97.4C67.3913 98.7653 65.6739 99.448 63.8393 99.448C61.0446 99.448 58.5806 98.4027 56.4473 96.312C54.1859 94.0933 53.0553 91.2987 53.0553 87.928C53.0553 84.664 54.0686 81.944 56.0953 79.768C58.1433 77.5707 60.6926 76.472 63.7433 76.472C65.1513 76.472 66.4099 76.792 67.5193 77.432C68.1593 77.7947 68.6286 77.976 68.9272 77.976C69.3753 77.976 69.7913 77.7733 70.1753 77.368C70.4526 77.0693 70.6233 76.92 70.6873 76.92C70.7726 76.92 70.8153 76.9947 70.8153 77.144C70.8153 77.208 70.8046 77.304 70.7833 77.432C70.6553 78.1573 70.5913 79.0533 70.5913 80.12C70.5913 80.2267 70.6019 80.664 70.6233 81.432C70.6233 82.1787 70.6233 82.68 70.6233 82.936V83.64C70.6233 84.024 70.5166 84.216 70.3033 84.216C70.1326 84.216 69.9619 83.8 69.7913 82.968C69.0233 79.128 67.2633 77.208 64.5113 77.208C62.3353 77.208 60.7566 78.616 59.7753 81.432C59.0926 83.352 58.7513 85.656 58.7513 88.344C58.7513 92.3333 59.5619 95.256 61.1833 97.112C62.0366 98.0933 63.1566 98.584 64.5433 98.584C67.5513 98.584 69.5246 96.5787 70.4633 92.568C70.6126 91.9067 70.7833 91.576 70.9753 91.576C71.1886 91.576 71.2846 91.7147 71.2633 91.992ZM87.863 92.216C87.863 94.4987 86.967 96.344 85.175 97.752C83.767 98.8613 82.2203 99.416 80.535 99.416C78.5297 99.416 76.791 98.7013 75.319 97.272C73.8683 95.8213 73.143 94.1147 73.143 92.152C73.143 90.104 73.8683 88.3653 75.319 86.936C76.791 85.4853 78.5617 84.76 80.631 84.76C82.615 84.76 84.311 85.496 85.719 86.968C87.1483 88.4187 87.863 90.168 87.863 92.216ZM83.031 92.248C83.031 89.6027 82.8497 87.7893 82.487 86.808C82.0817 85.72 81.431 85.176 80.535 85.176C79.703 85.176 79.0523 85.752 78.583 86.904C78.1137 88.0347 77.879 89.6027 77.879 91.608C77.879 94.4027 78.1563 96.3867 78.711 97.56C79.159 98.4987 79.7883 98.968 80.599 98.968C81.6017 98.968 82.263 98.3707 82.583 97.176C82.8817 96.0453 83.031 94.4027 83.031 92.248ZM105.265 98.392C105.265 98.5413 105.052 98.616 104.625 98.616L103.185 98.584C102.14 98.5627 101.041 98.8187 99.889 99.352C99.761 99.3947 99.6863 99.416 99.665 99.416C99.473 99.416 99.3663 99.224 99.345 98.84C99.345 98.648 99.313 98.3813 99.249 98.04C98.3957 98.9573 97.265 99.416 95.857 99.416C93.9797 99.416 92.433 98.7227 91.217 97.336C90.001 95.9493 89.393 94.1893 89.393 92.056C89.393 89.88 90.0117 88.1307 91.249 86.808C92.4863 85.464 94.1183 84.792 96.145 84.792C97.4677 84.792 98.545 85.2827 99.377 86.264V81.784C99.377 79.864 99.2917 78.7333 99.121 78.392C98.9503 78.0293 98.385 77.8587 97.425 77.88C96.8703 77.88 96.593 77.8053 96.593 77.656C96.593 77.5067 96.721 77.432 96.977 77.432C98.9183 77.432 100.774 77.144 102.545 76.568C102.801 76.4827 102.982 76.44 103.089 76.44C103.324 76.44 103.441 76.696 103.441 77.208L103.473 78.808L103.505 81.88V97.144C103.505 97.5067 103.558 97.752 103.665 97.88C103.814 98.072 104.188 98.1573 104.785 98.136C105.105 98.1147 105.265 98.2 105.265 98.392ZM99.345 95.512V88.536C99.345 87.576 99.185 86.8613 98.865 86.392C98.4597 85.7947 97.8943 85.496 97.169 85.496C95.121 85.496 94.097 87.768 94.097 92.312C94.097 94.3387 94.353 95.9067 94.865 97.016C95.3983 98.1253 96.1343 98.68 97.073 98.68C97.6277 98.68 98.1397 98.4347 98.609 97.944C99.0997 97.432 99.345 96.6213 99.345 95.512ZM112.351 78.52C112.351 79.1173 112.148 79.6293 111.743 80.056C111.338 80.4827 110.847 80.696 110.271 80.696C109.674 80.696 109.172 80.4933 108.767 80.088C108.362 79.6827 108.159 79.1707 108.159 78.552C108.159 77.9547 108.362 77.464 108.767 77.08C109.172 76.696 109.695 76.504 110.335 76.504C110.911 76.504 111.391 76.696 111.775 77.08C112.159 77.464 112.351 77.944 112.351 78.52ZM114.655 98.808C114.655 98.9573 114.559 99.032 114.367 99.032L110.111 98.968L107.039 99.032C106.911 99.032 106.751 99.0427 106.559 99.064C106.388 99.064 106.292 99.064 106.271 99.064C106.015 99.064 105.887 98.9787 105.887 98.808C105.887 98.68 106.132 98.6053 106.623 98.584C107.348 98.5627 107.775 98.488 107.903 98.36C108.031 98.2107 108.095 97.784 108.095 97.08V87.896C108.095 87.0853 108.02 86.6053 107.871 86.456C107.743 86.2853 107.327 86.2 106.623 86.2C106.175 86.2 105.908 86.1893 105.823 86.168C105.759 86.1467 105.727 86.072 105.727 85.944C105.727 85.7947 105.887 85.72 106.207 85.72C108.554 85.6987 110.559 85.336 112.223 84.632C112.266 84.888 112.319 85.592 112.383 86.744L112.415 90.808V96.824C112.415 97.6987 112.49 98.2107 112.639 98.36C112.81 98.5093 113.364 98.584 114.303 98.584C114.538 98.584 114.655 98.6587 114.655 98.808ZM132.096 98.808C132.096 98.9787 131.829 99.064 131.296 99.064C131.253 99.064 130.976 99.0533 130.464 99.032C129.952 99.0107 129.205 99 128.224 99H127.2L124.448 99.032C124.149 99.032 124 98.9467 124 98.776C124 98.6267 124.128 98.552 124.384 98.552H124.64C125.194 98.552 125.514 98.488 125.6 98.36C125.706 98.2107 125.76 97.7307 125.76 96.92V90.744C125.76 88.4613 125.61 87.096 125.312 86.648C125.056 86.264 124.597 86.072 123.936 86.072C123.274 86.072 122.73 86.2747 122.304 86.68C121.877 87.0853 121.664 87.5973 121.664 88.216L121.696 97.912C121.738 98.168 121.824 98.3387 121.952 98.424C122.101 98.488 122.453 98.5307 123.008 98.552C123.178 98.552 123.264 98.616 123.264 98.744C123.264 98.872 123.189 98.9467 123.04 98.968C122.89 98.9893 122.357 99 121.44 99C120.522 99 119.765 99.0107 119.168 99.032C117.994 99.0747 116.8 99.096 115.584 99.096C115.328 99.096 115.2 99.0213 115.2 98.872C115.2 98.7013 115.52 98.616 116.16 98.616C116.821 98.616 117.205 98.488 117.312 98.232L117.408 97.784V90.424C117.408 88.3547 117.386 87.2773 117.344 87.192C117.28 86.872 116.992 86.712 116.48 86.712C116.202 86.712 115.957 86.7227 115.743 86.744H115.392C115.05 86.744 114.88 86.6693 114.88 86.52C114.88 86.3707 115.008 86.2853 115.264 86.264C117.653 86.1573 119.562 85.656 120.992 84.76C121.162 84.6747 121.28 84.632 121.344 84.632C121.514 84.632 121.6 84.8027 121.6 85.144C121.6 86.0827 121.589 86.6907 121.568 86.968C122.698 85.496 124.149 84.76 125.92 84.76C127.754 84.76 128.949 85.4 129.504 86.68C129.738 87.2133 129.877 87.8107 129.92 88.472C129.984 89.1333 130.016 90.4987 130.016 92.568V97.208C130.016 97.8693 130.069 98.264 130.176 98.392C130.282 98.4987 130.624 98.552 131.2 98.552C131.797 98.552 132.096 98.6373 132.096 98.808ZM149.535 86.84C149.535 87.9707 148.991 88.536 147.903 88.536C146.9 88.536 146.399 88.0773 146.399 87.16C146.399 87.0107 146.431 86.84 146.495 86.648C146.58 86.456 146.623 86.3173 146.623 86.232C146.623 85.8693 146.431 85.688 146.047 85.688C145.791 85.688 145.545 85.8053 145.311 86.04C145.097 86.2533 144.991 86.4987 144.991 86.776C144.991 86.904 145.076 87.1387 145.247 87.48C145.652 88.2693 145.855 89.0053 145.855 89.688C145.855 91.288 145.119 92.6213 143.647 93.688C142.516 94.4987 141.129 94.904 139.487 94.904C138.804 94.904 138.015 94.776 137.119 94.52C136.884 94.456 136.681 94.424 136.511 94.424C136.105 94.424 135.753 94.552 135.455 94.808C135.177 95.0427 135.039 95.3413 135.039 95.704C135.039 96.472 135.647 96.856 136.863 96.856C137.78 96.856 139.145 96.728 140.959 96.472C141.407 96.408 141.833 96.376 142.239 96.376C143.668 96.376 144.777 96.7387 145.567 97.464C146.356 98.168 146.751 99.1707 146.751 100.472C146.751 102.563 145.94 104.227 144.319 105.464C142.719 106.701 140.553 107.32 137.823 107.32C135.903 107.32 134.377 106.979 133.247 106.296C132.137 105.635 131.582 104.717 131.582 103.544C131.582 101.773 132.884 100.707 135.487 100.344C133.908 99.7253 133.118 98.7867 133.118 97.528C133.118 95.8213 134.132 94.6587 136.159 94.04C134.196 93.0373 133.215 91.6293 133.215 89.816C133.215 88.3867 133.833 87.1813 135.071 86.2C136.329 85.2187 137.855 84.728 139.647 84.728C141.716 84.728 143.327 85.2933 144.479 86.424C145.289 85.3787 146.249 84.856 147.359 84.856C148.809 84.856 149.535 85.5173 149.535 86.84ZM141.983 90.008C141.983 86.7653 141.204 85.144 139.647 85.144C138.089 85.144 137.311 86.616 137.311 89.56C137.311 91.3307 137.503 92.6 137.887 93.368C138.271 94.136 138.911 94.52 139.807 94.52C140.639 94.52 141.204 94.2 141.503 93.56C141.823 92.8987 141.983 91.7147 141.983 90.008ZM145.087 102.328C145.087 100.749 144.159 99.96 142.303 99.96C141.407 99.96 140.233 100.077 138.783 100.312C137.737 100.483 136.959 100.568 136.447 100.568H135.967C135.369 101.293 135.071 102.189 135.071 103.256C135.071 105.517 136.543 106.648 139.487 106.648C141.065 106.648 142.388 106.232 143.455 105.4C144.543 104.568 145.087 103.544 145.087 102.328Z" fill="#1A1A1A"/>
</svg>
